<?xml version="1.0" encoding="utf-8"?>
<!-- Generator: Adobe Illustrator 16.0.4, SVG Export Plug-In . SVG Version: 6.00 Build 0)  -->
<!DOCTYPE svg PUBLIC "-//W3C//DTD SVG 1.1//EN" "http://www.w3.org/Graphics/SVG/1.1/DTD/svg11.dtd">
<svg version="1.1" id="Layer_1" xmlns="http://www.w3.org/2000/svg" xmlns:xlink="http://www.w3.org/1999/xlink" x="0px" y="0px"
	 width="472.5px" height="288.58px" viewBox="65.5 303.39 472.5 288.58" enable-background="new 65.5 303.39 472.5 288.58"
	 xml:space="preserve">
<g id="Map">
	<g>
		<g>
			<defs>
				<rect id="SVGID_2_" x="93" y="303.89" width="410" height="264.5"/>
			</defs>
			<clipPath id="SVGID_3_">
				<use xlink:href="#SVGID_2_"  overflow="visible"/>
			</clipPath>
			<g clip-path="url(#SVGID_3_)">
				<g>
					<line fill="none" stroke="#7C7C7B" stroke-width="10" stroke-miterlimit="10" x1="83" y1="386.303" x2="84" y2="386.284"/>
					
						<line fill="none" stroke="#7C7C7B" stroke-width="10" stroke-miterlimit="10" stroke-dasharray="2.012,4.024" x1="88.022" y1="386.21" x2="514.488" y2="378.358"/>
					
						<line fill="none" stroke="#7C7C7B" stroke-width="10" stroke-miterlimit="10" x1="516.5" y1="378.321" x2="517.5" y2="378.303"/>
				</g>
			</g>
		</g>
		<g>
			<defs>
				<rect id="SVGID_4_" x="93" y="303.89" width="410" height="264.5"/>
			</defs>
			<clipPath id="SVGID_5_">
				<use xlink:href="#SVGID_4_"  overflow="visible"/>
			</clipPath>
			
				<line clip-path="url(#SVGID_5_)" fill="none" stroke="#7C7C7B" stroke-width="3" stroke-linecap="round" stroke-linejoin="round" stroke-miterlimit="10" x1="83" y1="386.303" x2="517.5" y2="378.303"/>
		</g>
		<g>
			<defs>
				<rect id="SVGID_6_" x="93" y="303.89" width="410" height="264.5"/>
			</defs>
			<clipPath id="SVGID_7_">
				<use xlink:href="#SVGID_6_"  overflow="visible"/>
			</clipPath>
			
				<polyline clip-path="url(#SVGID_7_)" fill="none" stroke="#FFFFFF" stroke-width="15" stroke-linecap="round" stroke-linejoin="round" stroke-miterlimit="10" points="
				86.5,553.39 388,431.89 530.5,454.39 			"/>
		</g>
		<g>
			<defs>
				<rect id="SVGID_8_" x="93" y="303.89" width="410" height="264.5"/>
			</defs>
			<clipPath id="SVGID_9_">
				<use xlink:href="#SVGID_8_"  overflow="visible"/>
			</clipPath>
			
				<polyline clip-path="url(#SVGID_9_)" fill="none" stroke="#FFFFFF" stroke-width="15" stroke-linecap="round" stroke-linejoin="round" stroke-miterlimit="10" points="
				252.363,486.55 207.5,351.89 73,351.889 			"/>
		</g>
		<g>
			<defs>
				<rect id="SVGID_10_" x="93" y="303.89" width="410" height="264.5"/>
			</defs>
			<clipPath id="SVGID_11_">
				<use xlink:href="#SVGID_10_"  overflow="visible"/>
			</clipPath>
			
				<line clip-path="url(#SVGID_11_)" fill="none" stroke="#FFFFFF" stroke-width="15" stroke-linecap="round" stroke-linejoin="round" stroke-miterlimit="10" x1="291.874" y1="470.626" x2="312.747" y2="584.47"/>
		</g>
		<g>
			<rect id="SVGID_1_" x="93" y="303.89" fill="none" stroke="#FFFFFF" stroke-miterlimit="10" width="410" height="264.5"/>
		</g>
	</g>
</g>
<g id="Labels">
	<g>
		<path fill="#1D1D1B" d="M115.858,347.285h2.851c0.691,0,1.604,0,2.079,0.286c0.517,0.309,0.924,0.869,0.924,1.64
			c0,0.836-0.44,1.463-1.166,1.76v0.022c0.968,0.198,1.496,0.924,1.496,1.893c0,1.154-0.825,2.255-2.389,2.255h-3.795V347.285z
			 M116.903,350.663h2.091c1.188,0,1.673-0.429,1.673-1.254c0-1.09-0.771-1.243-1.673-1.243h-2.091V350.663z M116.903,354.26h2.618
			c0.902,0,1.476-0.551,1.476-1.408c0-1.023-0.825-1.31-1.705-1.31h-2.389V354.26z"/>
		<path fill="#1D1D1B" d="M125.692,349.32c1.806,0,2.763,1.31,2.763,2.981c0,1.662-0.957,2.971-2.763,2.971
			c-1.804,0-2.761-1.309-2.761-2.971C122.932,350.629,123.889,349.32,125.692,349.32z M125.692,354.447
			c0.979,0,1.771-0.77,1.771-2.146c0-1.386-0.792-2.156-1.771-2.156c-0.979,0-1.771,0.771-1.771,2.156
			C123.921,353.677,124.714,354.447,125.692,354.447z"/>
		<path fill="#1D1D1B" d="M129.553,347.285h0.936v3.004h0.021c0.309-0.683,1.111-0.969,1.793-0.969c1.497,0,1.959,0.858,1.959,2.08
			v3.74h-0.936v-3.851c0-0.693-0.44-1.145-1.155-1.145c-1.133,0-1.684,0.76-1.684,1.782v3.213h-0.936L129.553,347.285
			L129.553,347.285z"/>
		<path fill="#1D1D1B" d="M140.521,353.335c-0.253,1.255-1.154,1.937-2.432,1.937c-1.814,0-2.673-1.254-2.729-2.992
			c0-1.705,1.122-2.96,2.674-2.96c2.014,0,2.63,1.882,2.573,3.257h-4.258c-0.032,0.99,0.528,1.87,1.771,1.87
			c0.771,0,1.31-0.374,1.475-1.111L140.521,353.335L140.521,353.335z M139.618,351.751c-0.044-0.891-0.716-1.606-1.64-1.606
			c-0.979,0-1.562,0.737-1.629,1.606H139.618z"/>
		<path fill="#1D1D1B" d="M141.576,349.453h0.88v0.836h0.021c0.418-0.639,1.057-0.969,1.837-0.969c0.693,0,1.331,0.275,1.562,0.969
			c0.385-0.605,1.056-0.969,1.782-0.969c1.133,0,1.893,0.474,1.893,1.65v4.17h-0.936v-3.729c0-0.704-0.188-1.266-1.102-1.266
			c-0.901,0-1.483,0.572-1.483,1.452v3.543h-0.937v-3.729c0-0.737-0.231-1.266-1.067-1.266c-1.11,0-1.518,1.023-1.518,1.452v3.543
			h-0.936v-5.687H141.576z"/>
		<path fill="#1D1D1B" d="M151.949,348.429h-0.937v-1.145h0.937V348.429z M151.014,349.453h0.937v5.688h-0.937V349.453z"/>
		<path fill="#1D1D1B" d="M158.439,355.118c-0.165,0.1-0.374,0.154-0.672,0.154c-0.482,0-0.792-0.264-0.792-0.88
			c-0.517,0.605-1.21,0.88-2.002,0.88c-1.034,0-1.881-0.462-1.881-1.595c0-1.287,0.957-1.562,1.925-1.75
			c1.034-0.197,1.914-0.132,1.914-0.836c0-0.813-0.671-0.946-1.265-0.946c-0.792,0-1.375,0.242-1.42,1.078h-0.936
			c0.056-1.408,1.146-1.903,2.409-1.903c1.023,0,2.135,0.231,2.135,1.562v2.927c0,0.439,0,0.638,0.297,0.638
			c0.077,0,0.165-0.011,0.286-0.055L158.439,355.118L158.439,355.118z M156.921,352.203c-0.363,0.264-1.067,0.275-1.694,0.385
			c-0.616,0.11-1.145,0.33-1.145,1.023c0,0.616,0.527,0.836,1.101,0.836c1.232,0,1.738-0.77,1.738-1.287V352.203z"/>
		<path fill="#1D1D1B" d="M162.52,347.285h3.443c1.562,0,2.409,0.869,2.409,2.321s-0.848,2.333-2.409,2.321h-2.398v3.213h-1.045
			V347.285z M163.564,351.047h2.046c1.179,0.011,1.718-0.506,1.718-1.441s-0.539-1.44-1.718-1.44h-2.046V351.047z"/>
		<path fill="#1D1D1B" d="M169.548,347.285h0.936v7.855h-0.936V347.285z"/>
		<path fill="#1D1D1B" d="M176.975,355.118c-0.165,0.1-0.374,0.154-0.672,0.154c-0.483,0-0.792-0.264-0.792-0.88
			c-0.517,0.605-1.21,0.88-2.002,0.88c-1.034,0-1.881-0.462-1.881-1.595c0-1.287,0.957-1.562,1.925-1.75
			c1.034-0.197,1.914-0.132,1.914-0.836c0-0.813-0.671-0.946-1.265-0.946c-0.792,0-1.375,0.242-1.42,1.078h-0.936
			c0.055-1.408,1.146-1.903,2.409-1.903c1.022,0,2.135,0.231,2.135,1.562v2.927c0,0.439,0,0.638,0.297,0.638
			c0.077,0,0.165-0.011,0.286-0.055L176.975,355.118L176.975,355.118z M175.456,352.203c-0.363,0.264-1.067,0.275-1.694,0.385
			c-0.616,0.11-1.145,0.33-1.145,1.023c0,0.616,0.527,0.836,1.101,0.836c1.232,0,1.738-0.77,1.738-1.287V352.203z"/>
		<path fill="#1D1D1B" d="M181.703,351.279c-0.144-0.715-0.639-1.134-1.408-1.134c-1.354,0-1.771,1.067-1.771,2.223
			c0,1.045,0.475,2.079,1.662,2.079c0.901,0,1.44-0.527,1.562-1.386h0.957c-0.209,1.386-1.078,2.211-2.509,2.211
			c-1.737,0-2.661-1.21-2.661-2.904c0-1.705,0.88-3.048,2.684-3.048c1.287,0,2.321,0.605,2.454,1.959H181.703L181.703,351.279z"/>
		<path fill="#1D1D1B" d="M188.601,353.335c-0.253,1.255-1.155,1.937-2.432,1.937c-1.814,0-2.673-1.254-2.729-2.992
			c0-1.705,1.122-2.96,2.673-2.96c2.015,0,2.631,1.882,2.574,3.257h-4.258c-0.032,0.99,0.528,1.87,1.771,1.87
			c0.771,0,1.31-0.374,1.475-1.111L188.601,353.335L188.601,353.335z M187.698,351.751c-0.044-0.891-0.715-1.606-1.639-1.606
			c-0.979,0-1.562,0.737-1.629,1.606H187.698z"/>
	</g>
	<g>
		<path fill="#1D1D1B" d="M222.193,382.187l0.35,1.055l-4.752,5.926l0.007,0.021l6.049-1.997l0.312,0.939l-7.46,2.463l-0.358-1.086
			l4.698-5.873l-0.008-0.021l-5.984,1.977l-0.312-0.94L222.193,382.187z"/>
		<path fill="#1D1D1B" d="M218.657,396.527l-0.276-0.837l0.855-0.282l-0.006-0.021c-0.793-0.156-1.307-0.658-1.562-1.432
			c-0.469-1.42,0.202-2.128,1.359-2.511l3.553-1.173l0.294,0.889l-3.656,1.207c-0.658,0.217-0.948,0.776-0.724,1.455
			c0.354,1.076,1.249,1.36,2.22,1.04l3.05-1.008l0.293,0.889L218.657,396.527z"/>
		<path fill="#1D1D1B" d="M224.488,396.048l0.276,0.835l-1.139,0.377l0.007,0.021c1.009,0.142,1.634,0.596,1.92,1.566l-0.939,0.311
			c-0.473-1.431-1.46-1.684-2.828-1.231l-2.402,0.793l-0.293-0.889L224.488,396.048z"/>
		<path fill="#1D1D1B" d="M222.128,401.323c-0.783,0.294-0.807,1.065-0.564,1.797c0.184,0.554,0.558,1.265,1.235,1.04
			c0.688-0.228,0.515-1.143,0.42-2.097c-0.091-0.942-0.092-1.928,0.942-2.269c1.086-0.359,1.892,0.568,2.2,1.508
			c0.395,1.192,0.331,2.267-0.961,2.774l-0.293-0.888c0.669-0.29,0.689-0.969,0.496-1.555c-0.176-0.532-0.524-1.101-1.068-0.921
			c-0.638,0.211-0.433,1.186-0.357,2.076c0.095,0.954,0.093,1.928-0.952,2.272c-1.285,0.425-2.1-0.64-2.462-1.736
			c-0.399-1.211-0.247-2.397,1.072-2.892L222.128,401.323z"/>
		<path fill="#1D1D1B" d="M225.206,410.605c-1.271,0.153-2.201-0.489-2.603-1.701c-0.568-1.724,0.354-2.932,1.986-3.528
			c1.619-0.535,3.162,0.137,3.647,1.609c0.632,1.912-0.962,3.088-2.284,3.466l-1.335-4.043c-0.951,0.28-1.61,1.089-1.222,2.269
			c0.242,0.732,0.767,1.126,1.519,1.052L225.206,410.605z M226.427,409.252c0.832-0.322,1.301-1.184,1.011-2.061
			c-0.307-0.93-1.188-1.252-2.036-1.043L226.427,409.252z"/>
		<path fill="#1D1D1B" d="M229.213,410.359l0.275,0.835l-1.139,0.377l0.007,0.021c1.01,0.142,1.635,0.596,1.92,1.566l-0.938,0.311
			c-0.474-1.432-1.46-1.685-2.829-1.232l-2.402,0.793l-0.293-0.888L229.213,410.359z"/>
		<path fill="#1D1D1B" d="M224.952,418.01c-1.189-0.059-1.697-0.297-1.959-1.091c-0.069-0.208-0.117-0.425-0.11-0.647l0.814-0.27
			c0.005,0.186-0.011,0.387,0.049,0.564c0.121,0.365,0.362,0.506,0.73,0.569l1.041,0.062l4.662-3.915l0.332,1.003l-3.896,3.036
			l0.007,0.021l4.918,0.056l0.311,0.94L224.952,418.01z"/>
		<path fill="#1D1D1B" d="M235.163,421.46l1.158,3.51c0.463,1.4-0.015,2.521-1.204,2.912c-0.899,0.297-1.771,0.146-2.319-0.67
			l-0.021,0.006c0.119,0.924-0.46,1.312-1.167,1.625c-0.71,0.307-1.539,0.531-1.913,1.119l-0.365-1.107
			c0.21-0.383,1.064-0.49,1.749-0.879c0.695-0.346,1.254-0.727,0.937-1.688l-0.8-2.424l-3.188,1.051l-0.326-0.992L235.163,421.46z
			 M232.736,425.658c0.308,0.93,0.81,1.645,1.896,1.285c0.73-0.242,1.143-0.818,0.836-1.746l-0.814-2.469l-2.602,0.859
			L232.736,425.658z"/>
		<path fill="#1D1D1B" d="M236.314,431.437c0.566,1.715-0.377,3.033-1.965,3.559c-1.578,0.52-3.121,0.021-3.687-1.691
			s0.377-3.031,1.955-3.553C234.205,429.226,235.748,429.724,236.314,431.437z M231.446,433.044c0.308,0.93,1.286,1.441,2.593,1.01
			c1.315-0.436,1.8-1.428,1.492-2.357c-0.307-0.93-1.287-1.439-2.603-1.006C231.621,431.123,231.139,432.117,231.446,433.044z"/>
		<path fill="#1D1D1B" d="M233.599,441.707c-0.146-0.125-0.264-0.307-0.356-0.59c-0.152-0.459,0.002-0.834,0.587-1.027
			c-0.737-0.301-1.216-0.873-1.463-1.625c-0.325-0.982-0.151-1.932,0.924-2.285c1.223-0.404,1.784,0.418,2.266,1.277
			c0.512,0.92,0.727,1.777,1.395,1.557c0.771-0.256,0.688-0.934,0.503-1.498c-0.249-0.752-0.661-1.229-1.471-1.01l-0.293-0.889
			c1.354-0.391,2.166,0.49,2.562,1.689c0.321,0.973,0.45,2.102-0.813,2.52l-2.778,0.918c-0.418,0.137-0.605,0.199-0.514,0.48
			c0.024,0.072,0.062,0.152,0.143,0.254L233.599,441.707z M235.891,439.349c-0.365-0.262-0.596-0.926-0.896-1.486
			c-0.299-0.553-0.673-0.982-1.33-0.768c-0.586,0.193-0.628,0.766-0.449,1.309c0.387,1.17,1.276,1.41,1.768,1.246L235.891,439.349z"
			/>
		<path fill="#1D1D1B" d="M235.444,447.365l-0.293-0.891l0.731-0.24l-0.007-0.02c-0.693-0.098-1.182-0.699-1.426-1.441
			c-0.549-1.66,0.494-2.922,2.021-3.424c1.525-0.504,3.079-0.113,3.625,1.535c0.183,0.555,0.236,1.418-0.27,2.025l0.007,0.02
			l2.778-0.918l0.293,0.891L235.444,447.365z M235.274,444.638c0.395,1.191,1.569,1.312,2.582,0.98
			c1.065-0.354,1.891-1.158,1.486-2.379c-0.4-1.213-1.57-1.279-2.625-0.932C235.704,442.642,234.895,443.492,235.274,444.638z"/>
	</g>
	<g>
		<path fill="#1D1D1B" d="M298.386,491.806c1.052-0.414,1.444-1.393,1.25-2.463c-0.335-1.84-1.993-2.344-3.605-2.049
			c-1.765,0.32-3.094,1.369-2.757,3.219c0.246,1.354,1.341,1.959,2.637,1.824l0.188,1.027c-1.962,0.156-3.35-0.832-3.706-2.779
			c-0.438-2.404,1.125-3.896,3.375-4.307c2.24-0.408,4.302,0.535,4.736,2.916c0.294,1.613-0.329,3.102-1.931,3.641L298.386,491.806z
			"/>
		<path fill="#1D1D1B" d="M301.116,493.611l0.168,0.922l-2.955,0.539l0.005,0.02c0.728,0.184,1.151,0.92,1.274,1.592
			c0.269,1.473-0.494,2.08-1.695,2.301l-3.68,0.67l-0.168-0.92l3.788-0.691c0.682-0.123,1.047-0.637,0.918-1.342
			c-0.203-1.113-1.049-1.52-2.055-1.336l-3.16,0.576l-0.168-0.92L301.116,493.611z"/>
		<path fill="#1D1D1B" d="M295.412,505.992c-0.127-0.146-0.219-0.342-0.272-0.635c-0.086-0.477,0.117-0.826,0.723-0.938
			c-0.688-0.398-1.082-1.033-1.224-1.811c-0.185-1.02,0.117-1.934,1.231-2.137c1.267-0.23,1.709,0.66,2.066,1.578
			c0.379,0.982,0.473,1.861,1.165,1.734c0.801-0.146,0.812-0.83,0.705-1.414c-0.143-0.779-0.485-1.311-1.315-1.203l-0.168-0.92
			c1.396-0.199,2.078,0.785,2.306,2.029c0.184,1.006,0.154,2.141-1.154,2.379l-2.879,0.525c-0.433,0.078-0.628,0.113-0.575,0.406
			c0.015,0.076,0.041,0.16,0.105,0.271L295.412,505.992z M298.008,503.972c-0.325-0.309-0.463-1-0.683-1.596
			c-0.22-0.588-0.529-1.068-1.213-0.943c-0.605,0.111-0.728,0.67-0.625,1.232c0.222,1.213,1.068,1.572,1.578,1.479L298.008,503.972z
			"/>
		<path fill="#1D1D1B" d="M301.373,507.107l0.203,1.113l-0.812,0.148l-0.203-1.115l-3.474,0.633
			c-0.422,0.076-0.478,0.209-0.372,0.783l0.077,0.422l-0.812,0.148l-0.128-0.703c-0.173-0.953-0.048-1.367,0.98-1.555l3.561-0.648
			l-0.174-0.953l0.812-0.146l0.174,0.951l1.679-0.305l0.168,0.918L301.373,507.107z"/>
		<path fill="#1D1D1B" d="M303.896,508.847l0.167,0.922l-2.955,0.537l0.004,0.021c0.729,0.182,1.152,0.92,1.275,1.592
			c0.268,1.473-0.494,2.08-1.695,2.299l-3.679,0.672l-0.168-0.922l3.789-0.689c0.682-0.123,1.047-0.639,0.918-1.342
			c-0.203-1.113-1.049-1.52-2.056-1.336l-3.16,0.576l-0.167-0.92L303.896,508.847z"/>
		<path fill="#1D1D1B" d="M298.189,521.228c-0.127-0.146-0.218-0.342-0.271-0.635c-0.087-0.475,0.115-0.826,0.723-0.938
			c-0.688-0.398-1.082-1.031-1.224-1.811c-0.186-1.018,0.117-1.934,1.23-2.137c1.267-0.232,1.709,0.66,2.067,1.578
			c0.379,0.982,0.473,1.861,1.165,1.732c0.801-0.145,0.812-0.828,0.704-1.412c-0.142-0.779-0.484-1.311-1.314-1.203l-0.168-0.92
			c1.395-0.199,2.078,0.783,2.305,2.027c0.185,1.008,0.155,2.143-1.153,2.381l-2.88,0.525c-0.433,0.078-0.628,0.113-0.573,0.406
			c0.014,0.076,0.04,0.16,0.104,0.271L298.189,521.228z M300.784,519.21c-0.323-0.311-0.463-1-0.683-1.598
			c-0.219-0.586-0.529-1.066-1.212-0.943c-0.606,0.111-0.729,0.67-0.625,1.232c0.221,1.213,1.067,1.572,1.578,1.479L300.784,519.21z
			"/>
		<path fill="#1D1D1B" d="M303.918,521.066l0.157,0.863l-0.821,0.15l0.004,0.021c0.704,0.297,1.143,0.865,1.281,1.635
			c0.124,0.682-0.03,1.357-0.673,1.711c0.665,0.27,1.144,0.863,1.273,1.58c0.203,1.113-0.127,1.945-1.285,2.156l-4.102,0.748
			l-0.168-0.922l3.669-0.668c0.691-0.127,1.212-0.412,1.048-1.309c-0.162-0.889-0.83-1.359-1.695-1.201l-3.484,0.635l-0.168-0.92
			l3.669-0.668c0.727-0.133,1.203-0.455,1.055-1.277c-0.199-1.094-1.279-1.309-1.701-1.232l-3.485,0.637l-0.168-0.922
			L303.918,521.066z"/>
		<path fill="#1D1D1B" d="M308.31,533.068l0.618,3.387c0.278,1.539-0.423,2.527-1.853,2.787c-1.429,0.26-2.446-0.414-2.717-1.953
			l-0.43-2.359l-3.16,0.576l-0.188-1.029L308.31,533.068z M304.796,534.769l0.366,2.014c0.2,1.162,0.806,1.6,1.727,1.432
			c0.919-0.168,1.32-0.789,1.108-1.947l-0.366-2.014L304.796,534.769z"/>
		<path fill="#1D1D1B" d="M309.57,539.982l0.168,0.92l-7.729,1.408l-0.167-0.92L309.57,539.982z"/>
		<path fill="#1D1D1B" d="M303.195,548.693c-0.127-0.146-0.219-0.342-0.271-0.635c-0.087-0.477,0.117-0.824,0.723-0.938
			c-0.688-0.398-1.082-1.031-1.224-1.812c-0.187-1.018,0.115-1.934,1.23-2.137c1.267-0.229,1.708,0.662,2.066,1.58
			c0.38,0.982,0.473,1.859,1.166,1.734c0.801-0.146,0.811-0.83,0.704-1.414c-0.143-0.779-0.484-1.311-1.315-1.203l-0.167-0.92
			c1.396-0.199,2.077,0.783,2.304,2.027c0.185,1.008,0.155,2.143-1.153,2.381l-2.879,0.523c-0.434,0.08-0.628,0.115-0.574,0.406
			c0.014,0.076,0.04,0.162,0.104,0.271L303.195,548.693z M305.79,546.675c-0.323-0.311-0.463-1.002-0.682-1.598
			c-0.22-0.588-0.53-1.066-1.213-0.943c-0.606,0.111-0.728,0.67-0.625,1.232c0.221,1.213,1.068,1.572,1.578,1.479L305.79,546.675z"
			/>
		<path fill="#1D1D1B" d="M307.821,552.658c0.677-0.27,1.001-0.832,0.862-1.59c-0.242-1.33-1.368-1.553-2.504-1.346
			c-1.028,0.189-1.961,0.842-1.748,2.01c0.162,0.887,0.777,1.322,1.644,1.287l0.171,0.941c-1.399,0.043-2.366-0.664-2.624-2.07
			c-0.312-1.711,0.714-2.836,2.381-3.141c1.677-0.305,3.155,0.32,3.479,2.094c0.231,1.268-0.18,2.393-1.487,2.768L307.821,552.658z"
			/>
		<path fill="#1D1D1B" d="M307.033,559.81c-1.278-0.023-2.111-0.789-2.341-2.045c-0.326-1.783,0.754-2.854,2.454-3.219
			c1.678-0.307,3.113,0.572,3.392,2.098c0.361,1.982-1.381,2.926-2.741,3.117l-0.765-4.188c-0.979,0.145-1.746,0.854-1.521,2.078
			c0.138,0.758,0.603,1.221,1.357,1.252L307.033,559.81z M308.43,558.638c0.869-0.203,1.453-0.99,1.287-1.898
			c-0.176-0.963-1.005-1.404-1.873-1.314L308.43,558.638z"/>
	</g>
	<g>
		<path fill="#FFFFFF" d="M361.432,394.747h-2.617v-0.881h6.281v0.881h-2.618v6.975h-1.046V394.747z"/>
		<path fill="#FFFFFF" d="M365.811,393.866h0.936v3.004h0.021c0.309-0.683,1.111-0.969,1.793-0.969c1.496,0,1.959,0.858,1.959,2.08
			v3.74h-0.936v-3.851c0-0.693-0.441-1.145-1.156-1.145c-1.133,0-1.683,0.76-1.683,1.782v3.213h-0.936L365.811,393.866
			L365.811,393.866z"/>
		<path fill="#FFFFFF" d="M376.777,399.917c-0.252,1.255-1.154,1.937-2.432,1.937c-1.814,0-2.672-1.254-2.728-2.992
			c0-1.705,1.121-2.96,2.672-2.96c2.015,0,2.632,1.882,2.574,3.257h-4.258c-0.031,0.99,0.529,1.87,1.771,1.87
			c0.771,0,1.311-0.374,1.475-1.111L376.777,399.917L376.777,399.917z M375.875,398.333c-0.044-0.891-0.716-1.606-1.64-1.606
			c-0.979,0-1.562,0.737-1.629,1.606H375.875z"/>
		<path fill="#FFFFFF" d="M383.18,393.866h1.154l3.069,7.855h-1.156l-0.856-2.365h-3.322l-0.881,2.365h-1.078L383.18,393.866z
			 M382.398,398.476h2.662l-1.309-3.664h-0.021L382.398,398.476z"/>
		<path fill="#FFFFFF" d="M387.986,396.034h0.879v1.199h0.023c0.451-0.913,1.078-1.364,2.09-1.332v0.99
			c-1.508,0-2.057,0.858-2.057,2.3v2.53h-0.937L387.986,396.034L387.986,396.034z"/>
		<path fill="#FFFFFF" d="M395.346,397.86c-0.144-0.715-0.64-1.134-1.408-1.134c-1.354,0-1.771,1.067-1.771,2.223
			c0,1.045,0.473,2.079,1.661,2.079c0.9,0,1.439-0.527,1.562-1.386h0.957c-0.209,1.386-1.078,2.211-2.508,2.211
			c-1.738,0-2.662-1.21-2.662-2.904c0-1.705,0.881-3.048,2.684-3.048c1.287,0,2.322,0.605,2.455,1.959H395.346L395.346,397.86z"/>
		<path fill="#FFFFFF" d="M397.391,393.866h0.936v3.004h0.021c0.309-0.683,1.111-0.969,1.793-0.969c1.498,0,1.959,0.858,1.959,2.08
			v3.74h-0.937v-3.851c0-0.693-0.438-1.145-1.153-1.145c-1.133,0-1.685,0.76-1.685,1.782v3.213h-0.936L397.391,393.866
			L397.391,393.866z"/>
		<path fill="#FFFFFF" d="M408.357,399.917c-0.252,1.255-1.154,1.937-2.432,1.937c-1.814,0-2.672-1.254-2.728-2.992
			c0-1.705,1.121-2.96,2.672-2.96c2.015,0,2.632,1.882,2.574,3.257h-4.258c-0.031,0.99,0.529,1.87,1.771,1.87
			c0.771,0,1.312-0.374,1.476-1.111L408.357,399.917L408.357,399.917z M407.454,398.333c-0.043-0.891-0.715-1.606-1.639-1.606
			c-0.979,0-1.562,0.737-1.629,1.606H407.454z"/>
		<path fill="#FFFFFF" d="M409.986,399.928c0.033,0.836,0.758,1.1,1.529,1.1c0.582,0,1.375-0.132,1.375-0.847
			c0-0.727-0.924-0.848-1.859-1.057c-0.924-0.209-1.858-0.517-1.858-1.605c0-1.145,1.133-1.618,2.123-1.618
			c1.254,0,2.256,0.396,2.332,1.783h-0.937c-0.063-0.727-0.703-0.958-1.32-0.958c-0.561,0-1.209,0.154-1.209,0.727
			c0,0.671,0.99,0.781,1.859,0.99c0.936,0.209,1.859,0.517,1.859,1.617c0,1.354-1.267,1.793-2.423,1.793
			c-1.274,0-2.354-0.517-2.407-1.925L409.986,399.928L409.986,399.928z"/>
	</g>
	<g>
		<path fill="#B08B68" d="M282.327,432.958h4.029c1.631,0,2.734,0.529,2.734,2.123c0,0.84-0.42,1.428-1.163,1.787
			c1.043,0.301,1.571,1.104,1.571,2.172c0,1.738-1.477,2.48-3.022,2.48h-4.149V432.958L282.327,432.958z M284.211,436.425h1.906
			c0.659,0,1.15-0.301,1.15-1.02c0-0.816-0.623-0.982-1.295-0.982h-1.763L284.211,436.425L284.211,436.425z M284.211,440.06h2.015
			c0.743,0,1.392-0.24,1.392-1.129c0-0.875-0.553-1.223-1.354-1.223h-2.051L284.211,440.06L284.211,440.06z"/>
		<path fill="#B08B68" d="M290.523,437.228c0.098-1.594,1.523-2.072,2.915-2.072c1.235,0,2.724,0.273,2.724,1.762v3.227
			c0,0.564,0.06,1.129,0.216,1.381h-1.729c-0.06-0.191-0.106-0.396-0.12-0.602c-0.538,0.564-1.33,0.77-2.086,0.77
			c-1.176,0-2.11-0.59-2.11-1.859c0-1.404,1.056-1.738,2.11-1.883c1.043-0.156,2.016-0.121,2.016-0.816
			c0-0.73-0.504-0.84-1.104-0.84c-0.646,0-1.066,0.266-1.128,0.938h-1.703V437.228z M294.458,438.49
			c-0.288,0.252-0.889,0.264-1.415,0.357c-0.528,0.109-1.008,0.289-1.008,0.912c0,0.637,0.49,0.791,1.043,0.791
			c1.332,0,1.38-1.055,1.38-1.426V438.49z"/>
		<path fill="#B08B68" d="M297.531,432.958h1.703v8.564h-1.703V432.958z"/>
		<path fill="#B08B68" d="M300.627,432.958h1.702v8.564h-1.702V432.958z"/>
		<path fill="#B08B68" d="M306.733,442.302c-0.372,0.996-0.96,1.402-2.135,1.402c-0.348,0-0.695-0.023-1.044-0.061v-1.402
			c0.324,0.023,0.66,0.072,0.996,0.061c0.588-0.061,0.778-0.672,0.588-1.164l-2.185-5.814h1.823l1.403,4.244h0.023l1.354-4.244
			h1.764L306.733,442.302z"/>
	</g>
	<g>
		<path fill="#B08B68" d="M337.165,469.458h1.933l3.202,8.564h-1.955l-0.647-1.908h-3.203l-0.671,1.908h-1.907L337.165,469.458z
			 M336.986,474.712h2.219l-1.079-3.143h-0.023L336.986,474.712z"/>
		<path fill="#B08B68" d="M342.866,471.824h1.619v0.861h0.036c0.432-0.693,1.176-1.029,1.895-1.029c1.812,0,2.269,1.02,2.269,2.555
			v3.812h-1.703v-3.502c0-1.02-0.3-1.523-1.092-1.523c-0.924,0-1.319,0.516-1.319,1.775v3.25h-1.703L342.866,471.824
			L342.866,471.824z"/>
		<path fill="#B08B68" d="M353.041,478.802c-0.371,0.996-0.96,1.402-2.135,1.402c-0.348,0-0.694-0.023-1.044-0.061v-1.402
			c0.324,0.023,0.66,0.072,0.996,0.061c0.588-0.061,0.779-0.672,0.588-1.164l-2.184-5.814h1.823l1.402,4.244h0.024l1.354-4.244
			h1.765L353.041,478.802z"/>
		<path fill="#B08B68" d="M356.139,473.728c0.097-1.594,1.522-2.072,2.915-2.072c1.234,0,2.723,0.273,2.723,1.762v3.227
			c0,0.564,0.061,1.129,0.216,1.381h-1.728c-0.061-0.191-0.107-0.396-0.12-0.602c-0.539,0.564-1.331,0.77-2.086,0.77
			c-1.176,0-2.111-0.59-2.111-1.859c0-1.404,1.057-1.738,2.111-1.883c1.043-0.156,2.015-0.121,2.015-0.816
			c0-0.73-0.504-0.84-1.104-0.84c-0.647,0-1.067,0.266-1.128,0.938h-1.703V473.728z M360.073,474.99
			c-0.288,0.252-0.888,0.264-1.415,0.357c-0.527,0.109-1.008,0.289-1.008,0.912c0,0.637,0.491,0.791,1.043,0.791
			c1.332,0,1.38-1.055,1.38-1.426V474.99z"/>
		<path fill="#B08B68" d="M366.615,469.458h1.884v3.287h3.467v-3.287h1.883v8.564h-1.883v-3.695h-3.467v3.695h-1.884V469.458z"/>
		<path fill="#B08B68" d="M377.077,470.863h-1.702v-1.402h1.702V470.863z M375.375,471.824h1.702v6.199h-1.702V471.824z"/>
		<path fill="#B08B68" d="M378.423,471.824h1.618v0.861h0.036c0.433-0.693,1.177-1.029,1.896-1.029c1.812,0,2.268,1.02,2.268,2.555
			v3.812h-1.703v-3.502c0-1.02-0.3-1.523-1.092-1.523c-0.924,0-1.318,0.516-1.318,1.775v3.25h-1.703L378.423,471.824
			L378.423,471.824z"/>
		<path fill="#B08B68" d="M389.965,477.232h-0.024c-0.396,0.672-1.091,0.959-1.883,0.959c-1.871,0-2.782-1.607-2.782-3.322
			c0-1.666,0.924-3.213,2.746-3.213c0.732,0,1.451,0.311,1.835,0.922h0.024v-3.117h1.703v8.562h-1.619V477.232z M388.478,472.937
			c-1.115,0-1.499,0.961-1.499,1.98c0,0.971,0.443,1.99,1.499,1.99c1.128,0,1.463-0.982,1.463-2.002
			C389.94,473.898,389.58,472.937,388.478,472.937z"/>
		<path fill="#B08B68" d="M392.919,471.824h1.606v0.838h0.024c0.442-0.635,1.091-1.006,1.895-1.006c0.779,0,1.477,0.287,1.812,1.029
			c0.359-0.539,1.008-1.029,1.871-1.029c1.318,0,2.268,0.609,2.268,2.219v4.148h-1.703v-3.514c0-0.828-0.072-1.512-1.044-1.512
			c-0.959,0-1.14,0.791-1.14,1.57v3.455h-1.703v-3.48c0-0.719,0.049-1.547-1.031-1.547c-0.336,0-1.151,0.217-1.151,1.428v3.6h-1.702
			L392.919,471.824L392.919,471.824z"/>
		<path fill="#B08B68" d="M403.672,473.728c0.096-1.594,1.521-2.072,2.914-2.072c1.234,0,2.723,0.273,2.723,1.762v3.227
			c0,0.564,0.06,1.129,0.216,1.381h-1.728c-0.061-0.191-0.107-0.396-0.12-0.602c-0.539,0.564-1.331,0.77-2.087,0.77
			c-1.176,0-2.11-0.59-2.11-1.859c0-1.404,1.056-1.738,2.11-1.883c1.044-0.156,2.016-0.121,2.016-0.816
			c0-0.73-0.504-0.84-1.104-0.84c-0.647,0-1.067,0.266-1.129,0.938h-1.701V473.728z M407.605,474.99
			c-0.288,0.252-0.888,0.264-1.415,0.357c-0.528,0.109-1.008,0.289-1.008,0.912c0,0.637,0.491,0.791,1.043,0.791
			c1.332,0,1.38-1.055,1.38-1.426V474.99z"/>
		<path fill="#B08B68" d="M410.631,471.824h1.619v1.15h0.023c0.312-0.779,1.151-1.318,1.979-1.318c0.119,0,0.264,0.021,0.372,0.059
			v1.584c-0.156-0.037-0.408-0.061-0.611-0.061c-1.248,0-1.68,0.898-1.68,1.99v2.795h-1.703V471.824z"/>
		<path fill="#B08B68" d="M419.305,474.005c-0.107-0.697-0.552-1.066-1.259-1.066c-1.093,0-1.451,1.104-1.451,2.014
			c0,0.889,0.348,1.955,1.415,1.955c0.791,0,1.247-0.504,1.354-1.26h1.644c-0.216,1.645-1.355,2.543-2.986,2.543
			c-1.871,0-3.13-1.318-3.13-3.18c0-1.93,1.151-3.355,3.166-3.355c1.463,0,2.807,0.768,2.914,2.35H419.305L419.305,474.005z"/>
		<path fill="#B08B68" d="M421.971,469.458h1.703v3.227h0.036c0.432-0.693,1.176-1.029,1.811-1.029c1.812,0,2.268,1.02,2.268,2.555
			v3.812h-1.702v-3.502c0-1.02-0.301-1.523-1.093-1.523c-0.924,0-1.318,0.516-1.318,1.775v3.25h-1.703L421.971,469.458
			L421.971,469.458z"/>
	</g>
	<g>
		<path fill="#B08B68" d="M370.258,504.99c0,1.104-0.299,2.902-2.854,2.902c-1.428,0-2.817-0.779-2.817-2.65v-0.744h1.702v0.385
			c0,0.828,0.203,1.428,1.091,1.428c0.996,0,0.996-0.805,0.996-1.402v-5.781h1.883V504.99z"/>
		<path fill="#B08B68" d="M374.747,501.32c1.955,0,3.214,1.295,3.214,3.273c0,1.967-1.259,3.264-3.214,3.264
			c-1.942,0-3.202-1.297-3.202-3.264C371.545,502.615,372.805,501.32,374.747,501.32z M374.747,506.574
			c1.162,0,1.511-0.996,1.511-1.98c0-0.994-0.349-1.99-1.511-1.99c-1.151,0-1.5,0.996-1.5,1.99
			C373.247,505.578,373.596,506.574,374.747,506.574z"/>
		<path fill="#B08B68" d="M380.389,505.673c0.012,0.742,0.635,1.043,1.307,1.043c0.492,0,1.115-0.191,1.115-0.791
			c0-0.516-0.707-0.697-1.93-0.961c-0.984-0.215-1.968-0.562-1.968-1.654c0-1.584,1.367-1.99,2.697-1.99
			c1.355,0,2.604,0.455,2.734,1.979h-1.619c-0.047-0.658-0.551-0.84-1.162-0.84c-0.385,0-0.949,0.072-0.949,0.576
			c0,0.611,0.961,0.695,1.933,0.924c0.996,0.229,1.967,0.588,1.967,1.738c0,1.633-1.414,2.16-2.83,2.16
			c-1.439,0-2.842-0.541-2.914-2.184H380.389L380.389,505.673z"/>
		<path fill="#B08B68" d="M386.915,505.001c0.048,1.078,0.576,1.57,1.523,1.57c0.684,0,1.234-0.42,1.342-0.805h1.5
			c-0.479,1.465-1.5,2.088-2.901,2.088c-1.955,0-3.166-1.344-3.166-3.264c0-1.857,1.282-3.271,3.166-3.271
			c2.11,0,3.131,1.773,3.01,3.682H386.915L386.915,505.001z M389.686,503.921c-0.156-0.863-0.527-1.318-1.355-1.318
			c-1.077,0-1.391,0.84-1.414,1.318H389.686z"/>
		<path fill="#B08B68" d="M392.4,501.488h1.619v0.791h0.025c0.405-0.658,1.077-0.959,1.846-0.959c1.942,0,2.817,1.57,2.817,3.334
			c0,1.654-0.909,3.203-2.723,3.203c-0.742,0-1.451-0.324-1.856-0.938h-0.025v2.951H392.4V501.488z M397.006,504.607
			c0-0.984-0.396-2.004-1.486-2.004c-1.115,0-1.475,0.994-1.475,2.004c0,1.006,0.383,1.967,1.485,1.967
			C396.646,506.574,397.006,505.613,397.006,504.607z"/>
		<path fill="#B08B68" d="M399.732,499.125h1.703v3.227h0.037c0.432-0.693,1.176-1.029,1.811-1.029c1.812,0,2.269,1.02,2.269,2.555
			v3.812h-1.703v-3.502c0-1.02-0.301-1.523-1.092-1.523c-0.925,0-1.32,0.516-1.32,1.775v3.25h-1.703L399.732,499.125
			L399.732,499.125z"/>
	</g>
	<g>
		<path fill="#B08B68" d="M348.165,534.458h1.933l3.202,8.562h-1.955l-0.647-1.906h-3.203l-0.671,1.906h-1.907L348.165,534.458z
			 M347.986,539.712h2.219l-1.079-3.143h-0.023L347.986,539.712z"/>
		<path fill="#B08B68" d="M359.911,545.207h-1.702v-2.963h-0.024c-0.396,0.672-1.211,0.947-1.954,0.947
			c-1.14,0-2.627-0.826-2.627-3.227c0-1.703,0.899-3.311,2.782-3.311c0.768,0,1.499,0.275,1.883,0.959h0.024v-0.791h1.618V545.207
			L359.911,545.207z M356.781,541.908c1.104,0,1.486-0.936,1.486-1.955c0-0.971-0.384-2.016-1.451-2.016
			c-1.103,0-1.511,0.984-1.511,1.99C355.307,540.923,355.665,541.908,356.781,541.908z"/>
		<path fill="#B08B68" d="M367.017,543.023h-1.619v-0.863h-0.036c-0.432,0.695-1.176,1.031-1.896,1.031
			c-1.812,0-2.268-1.02-2.268-2.555v-3.812h1.703v3.502c0,1.02,0.3,1.521,1.092,1.521c0.924,0,1.319-0.516,1.319-1.773v-3.25h1.703
			L367.017,543.023L367.017,543.023z"/>
		<path fill="#B08B68" d="M368.243,538.728c0.097-1.594,1.522-2.072,2.914-2.072c1.235,0,2.724,0.273,2.724,1.762v3.227
			c0,0.564,0.06,1.129,0.216,1.381h-1.729c-0.06-0.191-0.106-0.396-0.12-0.602c-0.538,0.564-1.33,0.77-2.087,0.77
			c-1.175,0-2.109-0.588-2.109-1.859c0-1.404,1.056-1.738,2.109-1.883c1.044-0.156,2.017-0.121,2.017-0.816
			c0-0.73-0.504-0.84-1.104-0.84c-0.646,0-1.066,0.266-1.128,0.938h-1.702V538.728z M372.178,539.99
			c-0.288,0.252-0.889,0.264-1.415,0.357c-0.528,0.109-1.008,0.289-1.008,0.912c0,0.637,0.49,0.791,1.043,0.791
			c1.332,0,1.38-1.055,1.38-1.426V539.99z"/>
		<path fill="#B08B68" d="M376.522,541.007c0.012,0.744,0.636,1.043,1.308,1.043c0.491,0,1.115-0.189,1.115-0.791
			c0-0.516-0.708-0.695-1.931-0.959c-0.983-0.217-1.967-0.562-1.967-1.656c0-1.582,1.366-1.988,2.697-1.988
			c1.355,0,2.604,0.455,2.734,1.979h-1.619c-0.048-0.66-0.552-0.84-1.163-0.84c-0.384,0-0.948,0.072-0.948,0.576
			c0,0.609,0.961,0.693,1.933,0.924c0.995,0.227,1.967,0.586,1.967,1.738c0,1.631-1.415,2.158-2.83,2.158
			c-1.438,0-2.843-0.539-2.915-2.184H376.522L376.522,541.007z"/>
		<path fill="#B08B68" d="M385.867,539.005c-0.106-0.697-0.552-1.068-1.259-1.068c-1.092,0-1.451,1.105-1.451,2.016
			c0,0.889,0.349,1.955,1.415,1.955c0.791,0,1.247-0.504,1.355-1.26h1.643c-0.216,1.645-1.354,2.543-2.985,2.543
			c-1.871,0-3.131-1.318-3.131-3.18c0-1.93,1.151-3.355,3.166-3.355c1.464,0,2.808,0.768,2.914,2.35H385.867L385.867,539.005z"/>
		<path fill="#B08B68" d="M394.353,543.023h-1.619v-0.863h-0.036c-0.432,0.695-1.176,1.031-1.896,1.031
			c-1.812,0-2.268-1.02-2.268-2.555v-3.812h1.703v3.502c0,1.02,0.3,1.521,1.092,1.521c0.924,0,1.319-0.516,1.319-1.773v-3.25h1.703
			L394.353,543.023L394.353,543.023z"/>
		<path fill="#B08B68" d="M397.81,536.824h1.247v1.139h-1.247v3.07c0,0.576,0.144,0.719,0.72,0.719c0.181,0,0.349-0.012,0.527-0.047
			v1.33c-0.288,0.049-0.659,0.061-0.995,0.061c-1.044,0-1.955-0.24-1.955-1.475v-3.658h-1.031v-1.139h1.031v-1.859h1.703V536.824
			L397.81,536.824z"/>
		<path fill="#B08B68" d="M405.691,543.023h-1.619v-0.863h-0.036c-0.432,0.695-1.176,1.031-1.896,1.031
			c-1.812,0-2.268-1.02-2.268-2.555v-3.812h1.703v3.502c0,1.02,0.301,1.521,1.093,1.521c0.923,0,1.318-0.516,1.318-1.773v-3.25
			h1.703L405.691,543.023L405.691,543.023z"/>
		<path fill="#B08B68" d="M407.037,536.824h1.607v0.838h0.024c0.442-0.635,1.091-1.006,1.895-1.006c0.779,0,1.476,0.287,1.811,1.029
			c0.36-0.539,1.009-1.029,1.871-1.029c1.319,0,2.269,0.609,2.269,2.219v4.148h-1.703v-3.514c0-0.828-0.072-1.512-1.044-1.512
			c-0.959,0-1.14,0.791-1.14,1.57v3.453h-1.703v-3.479c0-0.719,0.049-1.547-1.031-1.547c-0.336,0-1.151,0.217-1.151,1.428v3.598
			h-1.703L407.037,536.824L407.037,536.824z"/>
	</g>
	<g>
		<path fill="#B08B68" d="M210.541,522.394h3.861c2.136,0,2.963,1.355,2.963,2.748c0,1.391-0.828,2.746-2.963,2.746h-1.979v3.07
			h-1.883V522.394z M212.424,526.425h1.463c0.875,0,1.655-0.191,1.655-1.283s-0.779-1.283-1.655-1.283h-1.463V526.425z"/>
		<path fill="#B08B68" d="M218.365,524.757h1.618v1.152h0.024c0.312-0.781,1.151-1.32,1.979-1.32c0.12,0,0.265,0.023,0.372,0.061
			v1.584c-0.155-0.037-0.407-0.061-0.611-0.061c-1.248,0-1.68,0.898-1.68,1.99v2.795h-1.702V524.757z"/>
		<path fill="#B08B68" d="M224.784,523.798h-1.703v-1.404h1.703V523.798z M223.081,524.757h1.703v6.201h-1.703V524.757z"/>
		<path fill="#B08B68" d="M226.128,524.757h1.619v0.863h0.036c0.432-0.695,1.175-1.031,1.895-1.031c1.811,0,2.267,1.021,2.267,2.555
			v3.814h-1.702v-3.502c0-1.021-0.301-1.523-1.092-1.523c-0.923,0-1.318,0.516-1.318,1.775v3.25h-1.703L226.128,524.757
			L226.128,524.757z"/>
		<path fill="#B08B68" d="M239.206,530.562c0,1.021-0.36,2.746-3.214,2.746c-1.224,0-2.65-0.574-2.734-1.99h1.691
			c0.155,0.637,0.672,0.852,1.271,0.852c0.947,0,1.379-0.646,1.367-1.535v-0.814h-0.024c-0.372,0.646-1.115,0.961-1.858,0.961
			c-1.859,0-2.651-1.416-2.651-3.119c0-1.607,0.924-3.07,2.663-3.07c0.814,0,1.438,0.275,1.847,0.996h0.024v-0.828h1.619V530.562z
			 M237.586,527.781c0-1.008-0.349-1.906-1.451-1.906c-0.959,0-1.379,0.838-1.379,1.762c0,0.889,0.336,1.859,1.379,1.859
			C237.107,529.496,237.586,528.667,237.586,527.781z"/>
		<path fill="#B08B68" d="M240.625,522.394h1.703v8.564h-1.703V522.394z"/>
		<path fill="#B08B68" d="M245.076,528.271c0.048,1.08,0.575,1.572,1.522,1.572c0.685,0,1.235-0.42,1.343-0.805h1.499
			c-0.479,1.463-1.499,2.088-2.901,2.088c-1.954,0-3.166-1.344-3.166-3.264c0-1.857,1.282-3.273,3.166-3.273
			c2.11,0,3.131,1.775,3.011,3.682H245.076L245.076,528.271z M247.846,527.193c-0.156-0.863-0.527-1.318-1.354-1.318
			c-1.079,0-1.392,0.838-1.415,1.318H247.846z"/>
		<path fill="#B08B68" d="M256.907,524.589c1.954,0,3.214,1.295,3.214,3.273c0,1.969-1.26,3.264-3.214,3.264
			c-1.943,0-3.202-1.295-3.202-3.264C253.705,525.884,254.963,524.589,256.907,524.589z M256.907,529.843
			c1.162,0,1.511-0.996,1.511-1.979c0-0.996-0.349-1.99-1.511-1.99c-1.151,0-1.499,0.994-1.499,1.99
			C255.408,528.847,255.755,529.843,256.907,529.843z"/>
		<path fill="#B08B68" d="M261.6,525.896h-1.02v-1.139h1.02v-0.479c0-1.092,0.685-1.885,2.075-1.885c0.3,0,0.611,0.037,0.899,0.049
			v1.271c-0.204-0.023-0.408-0.037-0.624-0.037c-0.456,0-0.647,0.193-0.647,0.709v0.371h1.175v1.139h-1.175v5.062H261.6V525.896z"/>
		<path fill="#B08B68" d="M216.024,542.515c0,1.141,0.889,1.584,1.896,1.584c0.66,0,1.667-0.191,1.667-1.066
			c0-0.924-1.283-1.08-2.542-1.416c-1.271-0.336-2.556-0.826-2.556-2.436c0-1.75,1.655-2.59,3.202-2.59
			c1.787,0,3.431,0.779,3.431,2.758h-1.823c-0.061-1.029-0.792-1.295-1.691-1.295c-0.6,0-1.295,0.252-1.295,0.973
			c0,0.658,0.408,0.742,2.556,1.295c0.624,0.156,2.543,0.553,2.543,2.494c0,1.57-1.235,2.746-3.562,2.746
			c-1.895,0-3.67-0.936-3.646-3.047H216.024z"/>
		<path fill="#B08B68" d="M226.571,541.341c-0.107-0.697-0.552-1.066-1.259-1.066c-1.091,0-1.451,1.104-1.451,2.014
			c0,0.889,0.349,1.955,1.416,1.955c0.792,0,1.247-0.504,1.355-1.26h1.643c-0.216,1.645-1.354,2.543-2.985,2.543
			c-1.871,0-3.13-1.318-3.13-3.18c0-1.93,1.15-3.355,3.167-3.355c1.463,0,2.807,0.768,2.915,2.35H226.571L226.571,541.341z"/>
		<path fill="#B08B68" d="M232.248,538.992c1.955,0,3.214,1.295,3.214,3.271c0,1.969-1.259,3.264-3.214,3.264
			c-1.943,0-3.203-1.295-3.203-3.264C229.045,540.287,230.304,538.992,232.248,538.992z M232.248,544.244
			c1.163,0,1.511-0.996,1.511-1.979c0-0.996-0.348-1.99-1.511-1.99c-1.151,0-1.5,0.994-1.5,1.99
			C230.748,543.248,231.096,544.244,232.248,544.244z"/>
		<path fill="#B08B68" d="M238.728,539.16h1.247v1.139h-1.247v3.07c0,0.576,0.145,0.719,0.719,0.719
			c0.181,0,0.349-0.012,0.528-0.047v1.33c-0.288,0.049-0.66,0.061-0.996,0.061c-1.043,0-1.955-0.238-1.955-1.475v-3.658h-1.031
			v-1.139h1.031V537.3h1.703L238.728,539.16L238.728,539.16z"/>
		<path fill="#B08B68" d="M240.841,536.794h1.703v8.564h-1.703V536.794z"/>
		<path fill="#B08B68" d="M243.817,541.066c0.097-1.596,1.522-2.074,2.914-2.074c1.235,0,2.724,0.273,2.724,1.762v3.229
			c0,0.562,0.06,1.127,0.216,1.379h-1.729c-0.06-0.191-0.106-0.396-0.12-0.602c-0.538,0.564-1.33,0.77-2.087,0.77
			c-1.175,0-2.109-0.588-2.109-1.859c0-1.404,1.056-1.738,2.109-1.883c1.044-0.156,2.017-0.121,2.017-0.816
			c0-0.73-0.504-0.84-1.104-0.84c-0.646,0-1.066,0.266-1.128,0.938h-1.702V541.066z M247.75,542.326
			c-0.288,0.252-0.889,0.264-1.415,0.357c-0.528,0.109-1.008,0.289-1.008,0.912c0,0.637,0.49,0.791,1.043,0.791
			c1.332,0,1.38-1.055,1.38-1.426V542.326L247.75,542.326z"/>
		<path fill="#B08B68" d="M250.777,539.16h1.619v0.861h0.036c0.432-0.693,1.176-1.029,1.896-1.029c1.812,0,2.268,1.02,2.268,2.555
			v3.812h-1.703v-3.502c0-1.02-0.3-1.523-1.092-1.523c-0.924,0-1.319,0.516-1.319,1.775v3.25h-1.703L250.777,539.16L250.777,539.16z
			"/>
		<path fill="#B08B68" d="M262.318,544.568h-0.023c-0.396,0.672-1.091,0.959-1.883,0.959c-1.871,0-2.782-1.607-2.782-3.322
			c0-1.666,0.924-3.213,2.746-3.213c0.731,0,1.451,0.311,1.835,0.922h0.023v-3.117h1.703v8.562h-1.619V544.568z M260.831,540.275
			c-1.115,0-1.499,0.959-1.499,1.979c0,0.971,0.442,1.99,1.499,1.99c1.128,0,1.463-0.982,1.463-2.002
			C262.293,541.234,261.934,540.275,260.831,540.275z"/>
	</g>
	<g>
		<path fill="#FFFFFF" d="M105.022,316.254h1.569v2.738h2.889v-2.738h1.569v7.136h-1.569v-3.078h-2.889v3.078h-1.569V316.254z"/>
		<path fill="#FFFFFF" d="M112.223,319.812c0.08-1.329,1.271-1.729,2.429-1.729c1.029,0,2.27,0.229,2.27,1.469v2.688
			c0,0.47,0.051,0.938,0.181,1.149h-1.438c-0.051-0.16-0.091-0.33-0.101-0.5c-0.45,0.47-1.108,0.64-1.738,0.64
			c-0.979,0-1.76-0.489-1.76-1.549c0-1.169,0.879-1.449,1.76-1.569c0.868-0.13,1.679-0.1,1.679-0.68c0-0.609-0.42-0.699-0.919-0.699
			c-0.54,0-0.891,0.22-0.939,0.779L112.223,319.812L112.223,319.812z M115.501,320.862c-0.24,0.21-0.739,0.22-1.181,0.3
			c-0.438,0.09-0.839,0.239-0.839,0.76c0,0.529,0.409,0.659,0.869,0.659c1.109,0,1.149-0.88,1.149-1.189L115.501,320.862
			L115.501,320.862z"/>
		<path fill="#FFFFFF" d="M121.54,320.042c-0.09-0.579-0.46-0.889-1.049-0.889c-0.91,0-1.211,0.919-1.211,1.679
			c0,0.739,0.29,1.629,1.181,1.629c0.659,0,1.039-0.42,1.129-1.049h1.369c-0.181,1.369-1.129,2.118-2.488,2.118
			c-1.559,0-2.608-1.099-2.608-2.648c0-1.609,0.959-2.798,2.64-2.798c1.219,0,2.339,0.64,2.429,1.958H121.54z"/>
		<path fill="#FFFFFF" d="M123.893,316.254h1.419v3.827l1.789-1.858h1.679l-1.947,1.898L129,323.39h-1.72l-1.419-2.309l-0.55,0.529
			v1.779h-1.419V316.254z"/>
		<path fill="#FFFFFF" d="M129.503,318.223h1.349v0.72h0.03c0.359-0.58,0.979-0.859,1.579-0.859c1.509,0,1.889,0.849,1.889,2.128
			v3.179h-1.419v-2.918c0-0.85-0.25-1.27-0.909-1.27c-0.77,0-1.1,0.43-1.1,1.479v2.709h-1.419V318.223L129.503,318.223z"/>
		<path fill="#FFFFFF" d="M136.602,321.152c0.04,0.899,0.479,1.309,1.271,1.309c0.568,0,1.028-0.35,1.119-0.67h1.249
			c-0.399,1.22-1.249,1.739-2.419,1.739c-1.63,0-2.639-1.119-2.639-2.718c0-1.55,1.069-2.729,2.639-2.729
			c1.76,0,2.608,1.479,2.509,3.068L136.602,321.152L136.602,321.152z M138.91,320.251c-0.131-0.719-0.439-1.099-1.13-1.099
			c-0.898,0-1.158,0.699-1.18,1.099H138.91z"/>
		<path fill="#FFFFFF" d="M143.721,324.04c-0.31,0.83-0.799,1.17-1.778,1.17c-0.29,0-0.58-0.021-0.87-0.051v-1.169
			c0.271,0.021,0.551,0.06,0.83,0.05c0.489-0.05,0.649-0.56,0.489-0.97l-1.817-4.847h1.519l1.17,3.538h0.021l1.13-3.538h1.469
			L143.721,324.04z"/>
		<path fill="#FFFFFF" d="M154.05,318.653c-0.101-0.71-0.78-1.249-1.56-1.249c-1.409,0-1.938,1.199-1.938,2.448
			c0,1.189,0.529,2.389,1.938,2.389c0.96,0,1.498-0.659,1.618-1.599h1.521c-0.16,1.778-1.391,2.918-3.139,2.918
			c-2.209,0-3.509-1.649-3.509-3.708c0-2.119,1.3-3.768,3.509-3.768c1.568,0,2.889,0.919,3.077,2.568L154.05,318.653L154.05,318.653
			z"/>
		<path fill="#FFFFFF" d="M157.722,321.152c0.04,0.899,0.479,1.309,1.271,1.309c0.568,0,1.028-0.35,1.118-0.67h1.249
			c-0.398,1.22-1.249,1.739-2.418,1.739c-1.63,0-2.639-1.119-2.639-2.718c0-1.55,1.069-2.729,2.639-2.729
			c1.76,0,2.608,1.479,2.51,3.068L157.722,321.152L157.722,321.152z M160.03,320.251c-0.13-0.719-0.438-1.099-1.129-1.099
			c-0.898,0-1.158,0.699-1.18,1.099H160.03z"/>
		<path fill="#FFFFFF" d="M162.292,318.223h1.349v0.72h0.03c0.358-0.58,0.979-0.859,1.579-0.859c1.509,0,1.889,0.849,1.889,2.128
			v3.179h-1.419v-2.918c0-0.85-0.25-1.27-0.909-1.27c-0.77,0-1.1,0.43-1.1,1.479v2.709h-1.419V318.223L162.292,318.223z"/>
		<path fill="#FFFFFF" d="M170.021,318.223h1.039v0.949h-1.039v2.559c0,0.479,0.12,0.6,0.601,0.6c0.148,0,0.29-0.01,0.438-0.04
			v1.109c-0.239,0.04-0.55,0.05-0.829,0.05c-0.87,0-1.629-0.199-1.629-1.229v-3.049h-0.859v-0.949h0.859v-1.55h1.419V318.223
			L170.021,318.223z"/>
		<path fill="#FFFFFF" d="M171.742,318.223h1.349v0.959h0.021c0.261-0.649,0.959-1.099,1.648-1.099c0.101,0,0.221,0.02,0.311,0.05
			v1.319c-0.13-0.03-0.34-0.051-0.51-0.051c-1.04,0-1.398,0.75-1.398,1.659v2.329h-1.419L171.742,318.223L171.742,318.223z"/>
		<path fill="#FFFFFF" d="M175.571,319.812c0.08-1.329,1.271-1.729,2.43-1.729c1.028,0,2.269,0.229,2.269,1.469v2.688
			c0,0.47,0.051,0.938,0.182,1.149h-1.439c-0.05-0.16-0.09-0.33-0.1-0.5c-0.45,0.47-1.109,0.64-1.739,0.64
			c-0.979,0-1.76-0.489-1.76-1.549c0-1.169,0.88-1.449,1.76-1.569c0.869-0.13,1.679-0.1,1.679-0.68c0-0.609-0.42-0.699-0.919-0.699
			c-0.54,0-0.89,0.22-0.938,0.779L175.571,319.812L175.571,319.812z M178.85,320.862c-0.239,0.21-0.739,0.22-1.18,0.3
			c-0.439,0.09-0.839,0.239-0.839,0.76c0,0.529,0.409,0.659,0.869,0.659c1.108,0,1.148-0.88,1.148-1.189L178.85,320.862
			L178.85,320.862z"/>
		<path fill="#FFFFFF" d="M181.412,316.254h1.419v7.136h-1.419V316.254z"/>
		<path fill="#FFFFFF" d="M120.54,329.154c-1.43,1.419-2.588,4.018-2.719,6.236h-0.949c0.16-2.398,1.31-4.588,2.799-6.167h-3.718
			v-0.799h4.587V329.154z"/>
		<path fill="#FFFFFF" d="M124.433,330.223h0.8v0.76h0.021c0.38-0.58,0.96-0.88,1.669-0.88c0.63,0,1.21,0.25,1.42,0.88
			c0.35-0.55,0.959-0.88,1.619-0.88c1.029,0,1.719,0.43,1.719,1.499v3.788h-0.85v-3.388c0-0.64-0.17-1.149-0.999-1.149
			c-0.82,0-1.351,0.52-1.351,1.319v3.218h-0.85v-3.388c0-0.67-0.21-1.149-0.97-1.149c-1.01,0-1.379,0.929-1.379,1.319v3.218h-0.851
			L124.433,330.223L124.433,330.223z"/>
		<path fill="#FFFFFF" d="M133.862,329.293h-0.85v-1.039h0.85V329.293z M133.013,330.223h0.85v5.167h-0.85V330.223z"/>
		<path fill="#FFFFFF" d="M135.183,330.223h0.8v0.819h0.021c0.359-0.64,0.938-0.939,1.68-0.939c1.358,0,1.778,0.779,1.778,1.889
			v3.398h-0.851v-3.498c0-0.63-0.398-1.039-1.049-1.039c-1.028,0-1.528,0.689-1.528,1.619v2.918h-0.851V330.223L135.183,330.223z"/>
		<path fill="#FFFFFF" d="M145.02,335.39h-0.799v-0.819H144.2c-0.359,0.64-0.939,0.939-1.68,0.939c-1.358,0-1.778-0.779-1.778-1.889
			v-3.398h0.85v3.498c0,0.63,0.399,1.039,1.05,1.039c1.029,0,1.528-0.689,1.528-1.619v-2.918h0.85V335.39z"/>
		<path fill="#FFFFFF" d="M147.482,330.223h1.029v0.749h-1.029v3.209c0,0.39,0.109,0.459,0.641,0.459h0.39v0.75h-0.649
			c-0.88,0-1.229-0.18-1.229-1.129v-3.289h-0.88v-0.749h0.88v-1.55h0.85v1.55H147.482z"/>
		<path fill="#FFFFFF" d="M153.859,333.751c-0.229,1.139-1.049,1.759-2.208,1.759c-1.648,0-2.429-1.14-2.479-2.719
			c0-1.549,1.02-2.688,2.429-2.688c1.829,0,2.389,1.709,2.339,2.958h-3.867c-0.029,0.899,0.479,1.699,1.608,1.699
			c0.7,0,1.189-0.34,1.34-1.009H153.859L153.859,333.751z M153.04,332.312c-0.04-0.81-0.649-1.459-1.489-1.459
			c-0.89,0-1.419,0.669-1.479,1.459H153.04z"/>
		<path fill="#FFFFFF" d="M155.342,333.761c0.03,0.76,0.688,0.999,1.39,0.999c0.529,0,1.249-0.12,1.249-0.77
			c0-0.659-0.84-0.77-1.688-0.959c-0.839-0.19-1.688-0.47-1.688-1.46c0-1.039,1.029-1.469,1.93-1.469
			c1.14,0,2.049,0.359,2.118,1.619h-0.85c-0.061-0.659-0.64-0.869-1.199-0.869c-0.51,0-1.1,0.14-1.1,0.659
			c0,0.609,0.898,0.71,1.688,0.899c0.85,0.19,1.688,0.47,1.688,1.47c0,1.229-1.149,1.629-2.198,1.629c-1.16,0-2.14-0.47-2.188-1.749
			L155.342,333.761L155.342,333.761z"/>
		<path fill="#FFFFFF" d="M167.72,335.39h-0.899l-1.05-4.107h-0.02l-1.04,4.107h-0.919l-1.659-5.167h0.938l1.17,4.228h0.021
			l1.039-4.228h0.93l1.079,4.228h0.021l1.158-4.228h0.881L167.72,335.39z"/>
		<path fill="#FFFFFF" d="M174.76,335.371c-0.149,0.09-0.34,0.14-0.609,0.14c-0.438,0-0.72-0.24-0.72-0.8
			c-0.47,0.55-1.1,0.8-1.818,0.8c-0.939,0-1.71-0.42-1.71-1.449c0-1.17,0.87-1.419,1.749-1.589c0.939-0.181,1.739-0.12,1.739-0.76
			c0-0.74-0.608-0.859-1.148-0.859c-0.721,0-1.249,0.22-1.289,0.979h-0.851c0.05-1.279,1.039-1.729,2.188-1.729
			c0.93,0,1.938,0.21,1.938,1.419v2.659c0,0.399,0,0.579,0.271,0.579c0.069,0,0.149-0.01,0.26-0.05V335.371L174.76,335.371z
			 M173.381,332.721c-0.33,0.24-0.97,0.25-1.539,0.351c-0.56,0.1-1.039,0.3-1.039,0.929c0,0.561,0.479,0.76,0.999,0.76
			c1.119,0,1.579-0.699,1.579-1.169V332.721L173.381,332.721z"/>
		<path fill="#FFFFFF" d="M175.602,328.254h0.851v7.136h-0.851V328.254z"/>
		<path fill="#FFFFFF" d="M177.821,328.254h0.851v4.228l2.357-2.259h1.141l-2.049,1.879l2.198,3.288h-1.08l-1.769-2.698l-0.8,0.739
			v1.959h-0.851L177.821,328.254L177.821,328.254z"/>
	</g>
	<g>
		<path fill="#1D1D1B" d="M415.141,431.509l1.414,0.217l1.443,6.9l3.461-6.145l1.411,0.217l-1.191,7.764l-0.979-0.148l0.993-6.461
			l-0.021-0.004l-3.418,6.088l-0.882-0.135l-1.432-6.834l-0.022-0.002l-0.992,6.459l-0.979-0.15L415.141,431.509z"/>
		<path fill="#1D1D1B" d="M426.553,435.324c1.783,0.271,2.529,1.713,2.275,3.363c-0.253,1.645-1.396,2.791-3.181,2.52
			c-1.783-0.275-2.53-1.715-2.277-3.357C423.625,436.197,424.77,435.048,426.553,435.324z M425.773,440.39
			c0.968,0.148,1.868-0.492,2.077-1.854c0.21-1.369-0.456-2.25-1.423-2.398c-0.97-0.148-1.869,0.492-2.079,1.861
			C424.14,439.361,424.807,440.242,425.773,440.39z"/>
		<path fill="#1D1D1B" d="M430.314,436.035l0.87,0.135L431,437.355l0.022,0.004c0.585-0.834,1.272-1.186,2.269-1l-0.149,0.979
			c-1.49-0.229-2.164,0.537-2.383,1.961l-0.386,2.502l-0.924-0.143L430.314,436.035z"/>
		<path fill="#1D1D1B" d="M434.163,436.626l0.869,0.133l-0.137,0.893l0.023,0.002c0.495-0.637,1.178-0.863,1.981-0.74
			c1.479,0.227,1.806,1.145,1.62,2.354l-0.567,3.697l-0.925-0.143l0.585-3.807c0.105-0.686-0.262-1.197-0.969-1.307
			c-1.119-0.172-1.778,0.494-1.934,1.506l-0.488,3.176l-0.924-0.143L434.163,436.626z"/>
		<path fill="#1D1D1B" d="M440.263,437.562l0.925,0.145l-0.864,5.621l-0.925-0.143L440.263,437.562z M441.342,436.695l-0.924-0.145
			l0.174-1.131l0.924,0.143L441.342,436.695z"/>
		<path fill="#1D1D1B" d="M442.622,437.925l0.869,0.133l-0.137,0.893l0.021,0.004c0.498-0.635,1.181-0.865,1.984-0.742
			c1.479,0.229,1.805,1.146,1.619,2.355l-0.567,3.695l-0.925-0.141l0.584-3.807c0.105-0.688-0.26-1.199-0.967-1.309
			c-1.119-0.172-1.779,0.496-1.934,1.506l-0.488,3.178l-0.925-0.143L442.622,437.925z"/>
		<path fill="#1D1D1B" d="M452.727,444.744c-0.281,1.826-1.262,2.633-3.033,2.359c-1.055-0.16-2.208-0.771-2.073-2.01l0.924,0.143
			c-0.06,0.682,0.709,1.045,1.317,1.139c1.207,0.186,1.818-0.613,2.012-1.873l0.059-0.369l-0.021-0.004
			c-0.409,0.639-1.2,0.861-1.906,0.754c-1.677-0.258-2.312-1.703-2.074-3.234c0.203-1.326,1.107-2.869,3.055-2.57
			c0.706,0.107,1.289,0.521,1.531,1.191l0.01,0.002l0.124-0.805l0.87,0.135L452.727,444.744z M452.189,442.158
			c0.152-0.99-0.125-2.08-1.289-2.258c-1.186-0.184-1.812,0.711-1.979,1.787c-0.155,1.012,0.041,2.199,1.259,2.389
			C451.398,444.261,452.027,443.21,452.189,442.158z"/>
		<path fill="#1D1D1B" d="M458.411,438.16l1.032,0.158l-1.06,6.895l4.109,0.633l-0.134,0.869l-5.143-0.791L458.411,438.16z"/>
		<path fill="#1D1D1B" d="M468.096,447.572c-0.178,0.072-0.394,0.096-0.688,0.051c-0.479-0.072-0.741-0.381-0.648-0.99
			c-0.604,0.521-1.329,0.688-2.112,0.566c-1.021-0.158-1.789-0.742-1.617-1.861c0.195-1.271,1.185-1.4,2.168-1.438
			c1.054-0.039,1.912,0.158,2.021-0.535c0.123-0.807-0.521-1.039-1.105-1.129c-0.783-0.119-1.396,0.029-1.567,0.85l-0.925-0.141
			c0.269-1.385,1.421-1.707,2.671-1.518c1.012,0.156,2.075,0.555,1.872,1.869l-0.442,2.895c-0.067,0.434-0.099,0.631,0.195,0.676
			c0.075,0.012,0.165,0.014,0.29-0.012L468.096,447.572z M467.036,444.458c-0.397,0.205-1.097,0.111-1.731,0.123
			c-0.627,0.018-1.183,0.152-1.287,0.838c-0.094,0.609,0.395,0.908,0.961,0.994c1.218,0.188,1.835-0.496,1.914-1.008
			L467.036,444.458z"/>
		<path fill="#1D1D1B" d="M469.814,442.103l0.869,0.135l-0.137,0.891l0.021,0.004c0.498-0.635,1.18-0.865,1.984-0.74
			c1.479,0.229,1.805,1.146,1.619,2.354l-0.567,3.697l-0.925-0.143l0.586-3.807c0.104-0.688-0.262-1.197-0.969-1.309
			c-1.119-0.172-1.779,0.496-1.935,1.508l-0.488,3.176l-0.925-0.143L469.814,442.103z"/>
		<path fill="#1D1D1B" d="M480.064,447.609c-0.438,1.201-1.436,1.736-2.697,1.545c-1.793-0.275-2.45-1.646-2.241-3.373
			c0.26-1.686,1.56-2.754,3.092-2.52c1.989,0.307,2.313,2.258,2.051,3.609l-4.209-0.646c-0.182,0.975,0.238,1.93,1.467,2.117
			c0.762,0.117,1.353-0.17,1.627-0.875L480.064,447.609z M479.413,445.906c0.093-0.889-0.463-1.695-1.377-1.836
			c-0.967-0.148-1.655,0.49-1.854,1.34L479.413,445.906z"/>
	</g>
	<polygon fill="#B08B68" points="110.725,335.433 104.333,332.57 110.725,329.708 	"/>
	<g>
		<g>
			<path fill="#B08B68" d="M188.862,326.557c-0.218-0.489-0.005-1.064,0.485-1.287l2.839-1.292l1.516-4.002
				c0.146-0.384,0.517-0.621,0.905-0.621l0.005-0.006h1.942c0.01,0,0.02,0.006,0.024,0.006c0.138,0.004,0.279,0.027,0.412,0.093
				l3.889,1.947c0.152,0.076,0.281,0.19,0.376,0.332l1.946,2.916c0.295,0.445,0.176,1.049-0.271,1.349
				c-0.167,0.109-0.355,0.161-0.542,0.161c-0.313,0-0.623-0.151-0.808-0.433l-1.805-2.702l-2.216-1.11
				c0.042,0.213,0.066,0.355,0.066,0.355c0.289,1.459,0.678,3.31,0.873,3.89c0.29,1.362-0.68,2.141-0.68,2.141l-3.407,3.41
				l-1.813,4.534c-0.157,0.385-0.519,0.612-0.908,0.612c-0.119,0-0.241-0.019-0.359-0.066c-0.499-0.2-0.742-0.765-0.542-1.267
				l1.946-4.862c0.029-0.081,0.072-0.152,0.123-0.218l0.601-0.799l1.638-2.606l-0.693-3.41l-0.536,1.416
				c-0.091,0.242-0.271,0.437-0.509,0.547l-3.206,1.457c-0.132,0.062-0.271,0.085-0.402,0.085
				C189.38,327.127,189.028,326.918,188.862,326.557L188.862,326.557z M194.124,318.376c1.342,0,2.43-1.087,2.43-2.432
				c0-1.341-1.088-2.43-2.43-2.43c-1.34,0-2.433,1.088-2.433,2.43C191.692,317.289,192.784,318.376,194.124,318.376L194.124,318.376
				z M198.79,328.489c-0.096,0.195-0.29,0.39-0.385,0.483l-1.558,1.559l0.679,1.651c0.043,0.214,0.147,0.376,0.285,0.509l2.83,3.77
				c0.19,0.257,0.479,0.389,0.779,0.389c0.2,0,0.404-0.062,0.58-0.195c0.432-0.322,0.518-0.93,0.193-1.358l-2.758-3.679
				L198.79,328.489L198.79,328.489z"/>
		</g>
	</g>
	<circle fill="#FFFFFF" cx="317.627" cy="469.141" r="7.235"/>
	<circle fill="#FFFFFF" cx="349.044" cy="499.876" r="7.236"/>
	<circle fill="#FFFFFF" cx="329.372" cy="533.369" r="7.236"/>
	<circle fill="#FFFFFF" cx="273.704" cy="506.695" r="7.236"/>
	<circle fill="#FFFFFF" cx="266.467" cy="436.139" r="7.237"/>
	<g>
		<path fill="#B08B68" d="M266.467,427.726c-5.032,0-9.127,4.096-9.127,9.127c0,2.027,1.295,5.332,3.957,10.104
			c1.884,3.375,3.734,6.188,3.812,6.307l1.356,2.057l1.355-2.057c0.078-0.119,1.932-2.932,3.813-6.307
			c2.662-4.771,3.957-8.076,3.957-10.104C275.594,431.822,271.499,427.726,266.467,427.726L266.467,427.726z M266.467,441.523
			c-2.612,0-4.73-2.117-4.73-4.73s2.118-4.73,4.73-4.73s4.73,2.117,4.73,4.73S269.079,441.523,266.467,441.523L266.467,441.523z"/>
	</g>
	<g>
		<path fill="#B08B68" d="M273.704,496.048c-5.032,0-9.127,4.094-9.127,9.127c0,2.027,1.295,5.332,3.957,10.104
			c1.884,3.375,3.734,6.188,3.812,6.307l1.356,2.057l1.355-2.057c0.078-0.119,1.931-2.932,3.813-6.307
			c2.661-4.771,3.957-8.076,3.957-10.104C282.831,500.142,278.736,496.048,273.704,496.048L273.704,496.048z M273.704,509.845
			c-2.612,0-4.73-2.119-4.73-4.73c0-2.613,2.118-4.73,4.73-4.73c2.611,0,4.73,2.117,4.73,4.73
			C278.435,507.726,276.316,509.845,273.704,509.845L273.704,509.845z"/>
	</g>
	<g>
		<path fill="#B08B68" d="M317.627,459.81c-5.032,0-9.127,4.094-9.127,9.125c0,2.027,1.295,5.332,3.956,10.104
			c1.885,3.375,3.735,6.188,3.813,6.307l1.355,2.059l1.356-2.059c0.078-0.117,1.931-2.932,3.813-6.307
			c2.661-4.771,3.957-8.074,3.957-10.102C326.754,463.904,322.658,459.81,317.627,459.81L317.627,459.81z M317.627,473.607
			c-2.612,0-4.73-2.119-4.73-4.73c0-2.613,2.118-4.732,4.73-4.732c2.611,0,4.73,2.119,4.73,4.732
			C322.358,471.488,320.239,473.607,317.627,473.607L317.627,473.607z"/>
	</g>
	<g>
		<path fill="#B08B68" d="M349.044,489.806c-5.032,0-9.128,4.094-9.128,9.125c0,2.027,1.296,5.332,3.957,10.104
			c1.885,3.375,3.735,6.188,3.813,6.307l1.356,2.059l1.355-2.059c0.078-0.117,1.931-2.932,3.813-6.307
			c2.661-4.771,3.956-8.074,3.956-10.102C358.171,493.9,354.075,489.806,349.044,489.806L349.044,489.806z M349.044,503.601
			c-2.612,0-4.73-2.117-4.73-4.729c0-2.613,2.118-4.732,4.73-4.732c2.611,0,4.73,2.119,4.73,4.732
			C353.775,501.484,351.656,503.601,349.044,503.601L349.044,503.601z"/>
	</g>
	<g>
		<path fill="#B08B68" d="M329.372,524.093c-5.031,0-9.127,4.094-9.127,9.127c0,2.027,1.295,5.332,3.957,10.104
			c1.885,3.375,3.735,6.188,3.813,6.307l1.355,2.057l1.356-2.057c0.078-0.119,1.931-2.932,3.812-6.307
			c2.662-4.771,3.957-8.076,3.957-10.104C338.5,528.187,334.405,524.093,329.372,524.093L329.372,524.093z M329.372,537.89
			c-2.611,0-4.729-2.117-4.729-4.73s2.118-4.73,4.729-4.73c2.612,0,4.731,2.117,4.731,4.73
			C334.104,535.771,331.985,537.89,329.372,537.89L329.372,537.89z"/>
	</g>
</g>
</svg>
